<svg width="100%" height="100%" viewBox="0 0 117 25" fill="none"
  xmlns="http://www.w3.org/2000/svg">
  <path d="M7.42409 2.624C6.08009 2.66667 5.04542 3.17867 4.32009 4.16C3.61609 5.14134 3.26409 6.83733 3.26409 9.248C3.26409 10.0373 3.33875 10.592 3.48809 10.912C3.63742 11.2107 3.71209 11.3813 3.71209 11.424C2.56009 11.424 1.69609 11.1893 1.12009 10.72C0.565419 10.2293 0.288086 9.42933 0.288086 8.32C0.288086 6.80533 0.661419 5.42933 1.40809 4.192C2.15475 2.93333 3.33875 1.92 4.96009 1.152C6.60275 0.384 8.68275 0 11.2001 0C11.7121 0 12.3948 0.0533333 13.2481 0.16C14.7841 0.309334 15.8721 0.384001 16.5121 0.384001C17.6428 0.384001 18.6028 0.256001 19.3921 0C19.3281 0.192 19.2108 0.618667 19.0401 1.28C18.8694 1.92 18.5601 2.47467 18.1121 2.944C17.6854 3.392 17.0988 3.69067 16.3521 3.84C15.0934 3.84 13.6001 3.63733 11.8721 3.232L10.5281 9.6H15.2001L14.6881 11.968H10.0161L7.42409 24H2.81609L7.42409 2.624Z" fill="white"/>
  <path d="M16.8636 8H21.4716L21.0556 9.984C21.7809 9.344 22.4316 8.85333 23.0076 8.512C23.6049 8.17067 24.2449 8 24.9276 8C25.6103 8 26.1436 8.23467 26.5276 8.704C26.9329 9.17333 27.1356 9.73867 27.1356 10.4C27.1356 11.0187 26.9329 11.5627 26.5276 12.032C26.1223 12.5013 25.5569 12.736 24.8316 12.736C24.3623 12.736 24.0423 12.6293 23.8716 12.416C23.7223 12.1813 23.6049 11.8507 23.5196 11.424C23.4556 11.1467 23.3916 10.944 23.3276 10.816C23.2636 10.688 23.1463 10.624 22.9756 10.624C22.5276 10.624 22.1436 10.72 21.8236 10.912C21.5249 11.0827 21.1303 11.392 20.6396 11.84L18.0796 24H13.4716L16.8636 8Z" fill="white"/>
  <path d="M31.2948 24.192C29.7162 24.192 28.4895 23.7867 27.6148 22.976C26.7402 22.144 26.3028 20.8533 26.3028 19.104C26.3028 17.632 26.5908 16.0107 27.1668 14.24C27.7428 12.4693 28.6815 10.944 29.9828 9.664C31.2842 8.36267 32.9375 7.712 34.9428 7.712C37.2895 7.712 38.4628 8.736 38.4628 10.784C38.4628 11.9787 38.1215 13.0773 37.4388 14.08C36.7562 15.0827 35.8495 15.8933 34.7188 16.512C33.5882 17.1093 32.3828 17.4507 31.1028 17.536C31.0602 18.176 31.0388 18.6027 31.0388 18.816C31.0388 19.8613 31.2202 20.576 31.5828 20.96C31.9455 21.3227 32.5322 21.504 33.3428 21.504C34.4948 21.504 35.4762 21.2373 36.2868 20.704C37.1188 20.1707 38.0255 19.36 39.0068 18.272H40.0948C37.7268 22.2187 34.7935 24.192 31.2948 24.192ZM31.3588 16C32.1482 15.9573 32.8948 15.68 33.5988 15.168C34.3242 14.656 34.9002 14.0053 35.3268 13.216C35.7748 12.4267 35.9988 11.5947 35.9988 10.72C35.9988 9.84533 35.7322 9.408 35.1988 9.408C34.4308 9.408 33.6735 10.08 32.9268 11.424C32.2015 12.768 31.6788 14.2933 31.3588 16Z" fill="white"/>
  <path d="M43.5761 24.192C41.9974 24.192 40.7708 23.7867 39.8961 22.976C39.0214 22.144 38.5841 20.8533 38.5841 19.104C38.5841 17.632 38.8721 16.0107 39.4481 14.24C40.0241 12.4693 40.9628 10.944 42.2641 9.664C43.5654 8.36267 45.2188 7.712 47.2241 7.712C49.5708 7.712 50.7441 8.736 50.7441 10.784C50.7441 11.9787 50.4028 13.0773 49.7201 14.08C49.0374 15.0827 48.1308 15.8933 47.0001 16.512C45.8694 17.1093 44.6641 17.4507 43.3841 17.536C43.3414 18.176 43.3201 18.6027 43.3201 18.816C43.3201 19.8613 43.5014 20.576 43.8641 20.96C44.2268 21.3227 44.8134 21.504 45.6241 21.504C46.7761 21.504 47.7574 21.2373 48.5681 20.704C49.4001 20.1707 50.3068 19.36 51.2881 18.272H52.3761C50.0081 22.2187 47.0748 24.192 43.5761 24.192ZM43.6401 16C44.4294 15.9573 45.1761 15.68 45.8801 15.168C46.6054 14.656 47.1814 14.0053 47.6081 13.216C48.0561 12.4267 48.2801 11.5947 48.2801 10.72C48.2801 9.84533 48.0134 9.408 47.4801 9.408C46.7121 9.408 45.9548 10.08 45.2081 11.424C44.4828 12.768 43.9601 14.2933 43.6401 16Z" fill="white"/>
  <path d="M54.4493 24.192C53.4253 24.192 52.5933 23.872 51.9533 23.232C51.3347 22.592 51.0253 21.632 51.0253 20.352C51.0253 19.8187 51.1107 19.1253 51.2813 18.272L54.7053 2.24L59.4413 1.6L55.7613 18.88C55.676 19.2 55.6333 19.5413 55.6333 19.904C55.6333 20.3307 55.7293 20.64 55.9213 20.832C56.1347 21.0027 56.476 21.088 56.9453 21.088C57.564 21.088 58.14 20.832 58.6733 20.32C59.2067 19.7867 59.5907 19.104 59.8253 18.272H61.1693C60.38 20.576 59.3667 22.144 58.1293 22.976C56.892 23.7867 55.6653 24.192 54.4493 24.192Z" fill="white"/>
  <path d="M63.6526 24.192C62.4366 24.192 61.4233 23.776 60.6126 22.944C59.8019 22.112 59.3966 20.8107 59.3966 19.04C59.3966 17.4613 59.7059 15.808 60.3246 14.08C60.9646 12.3307 61.9033 10.8587 63.1406 9.664C64.3993 8.448 65.8926 7.84 67.6206 7.84C68.4952 7.84 69.1459 7.98934 69.5726 8.288C69.9993 8.58667 70.2126 8.98133 70.2126 9.472V9.696L70.5646 8H75.1726L72.8686 18.88C72.7833 19.2 72.7406 19.5413 72.7406 19.904C72.7406 20.8213 73.1779 21.28 74.0526 21.28C74.6499 21.28 75.1619 21.0027 75.5886 20.448C76.0366 19.8933 76.3886 19.168 76.6446 18.272H77.9886C77.1993 20.576 76.2179 22.144 75.0446 22.976C73.8926 23.7867 72.7299 24.192 71.5566 24.192C70.6606 24.192 69.9353 23.9467 69.3806 23.456C68.8473 22.944 68.5273 22.208 68.4206 21.248C67.8019 22.1227 67.1086 22.8373 66.3406 23.392C65.5939 23.9253 64.6979 24.192 63.6526 24.192ZM65.7326 21.088C66.2659 21.088 66.7886 20.8427 67.3006 20.352C67.8339 19.84 68.1966 19.1467 68.3886 18.272L69.9246 11.04C69.9246 10.7627 69.8179 10.496 69.6046 10.24C69.3912 9.96267 69.0606 9.824 68.6126 9.824C67.7593 9.824 66.9913 10.3253 66.3086 11.328C65.6259 12.3093 65.0926 13.504 64.7086 14.912C64.3246 16.2987 64.1326 17.5253 64.1326 18.592C64.1326 19.6587 64.2819 20.3413 64.5806 20.64C64.9006 20.9387 65.2846 21.088 65.7326 21.088Z" fill="white"/>
  <path d="M88.2083 24.192C86.907 24.192 85.947 23.8507 85.3283 23.168C84.731 22.464 84.4323 21.6 84.4323 20.576C84.4323 20.128 84.4857 19.6267 84.5923 19.072C84.699 18.496 84.8057 17.9413 84.9123 17.408C85.0403 16.8747 85.1257 16.5333 85.1683 16.384C85.339 15.6373 85.499 14.9013 85.6483 14.176C85.7977 13.4507 85.8723 12.864 85.8723 12.416C85.8723 11.328 85.4883 10.784 84.7203 10.784C84.1657 10.784 83.675 11.0613 83.2483 11.616C82.8217 12.1493 82.4803 12.8533 82.2243 13.728L80.0483 24H75.4403L78.8323 8H83.4403L83.0883 9.664C84.155 8.46933 85.403 7.872 86.8323 7.872C87.9203 7.872 88.7843 8.17067 89.4243 8.768C90.0643 9.36533 90.3843 10.272 90.3843 11.488C90.3843 12.1067 90.3097 12.8 90.1603 13.568C90.011 14.3147 89.7977 15.232 89.5203 16.32C89.3497 16.9813 89.1897 17.632 89.0403 18.272C88.9123 18.8907 88.8483 19.3813 88.8483 19.744C88.8483 20.1707 88.9443 20.5013 89.1363 20.736C89.3283 20.9707 89.659 21.088 90.1283 21.088C90.7683 21.088 91.2803 20.864 91.6643 20.416C92.0483 19.9467 92.4323 19.232 92.8163 18.272H94.1603C93.371 20.6187 92.4537 22.1973 91.4083 23.008C90.3843 23.7973 89.3177 24.192 88.2083 24.192Z" fill="white"/>
  <path d="M97.3886 24.192C95.8099 24.192 94.5833 23.7867 93.7086 22.976C92.8339 22.144 92.3966 20.8533 92.3966 19.104C92.3966 17.632 92.6846 16.0107 93.2606 14.24C93.8579 12.4693 94.7966 10.944 96.0766 9.664C97.3779 8.36267 99.0206 7.712 101.005 7.712C102.285 7.712 103.191 7.98934 103.725 8.544C104.279 9.09867 104.557 9.80267 104.557 10.656C104.557 11.4027 104.397 11.9787 104.077 12.384C103.757 12.7893 103.351 12.992 102.861 12.992C102.498 12.992 102.125 12.864 101.741 12.608C101.997 11.904 102.125 11.2747 102.125 10.72C102.125 10.3147 102.05 9.99467 101.901 9.76C101.751 9.52533 101.527 9.408 101.229 9.408C100.589 9.408 99.9486 9.93067 99.3086 10.976C98.6686 12.0213 98.1459 13.2907 97.7406 14.784C97.3353 16.2773 97.1326 17.6213 97.1326 18.816C97.1326 19.8613 97.3139 20.576 97.6766 20.96C98.0392 21.3227 98.6259 21.504 99.4366 21.504C100.589 21.504 101.57 21.2373 102.381 20.704C103.213 20.1707 104.119 19.36 105.101 18.272H106.189C103.821 22.2187 100.887 24.192 97.3886 24.192Z" fill="white"/>
  <path d="M109.606 24.192C108.049 24.192 106.832 23.7867 105.958 22.976C105.083 22.144 104.646 20.8533 104.646 19.104C104.646 17.632 104.934 16.0107 105.51 14.24C106.086 12.4693 107.025 10.944 108.326 9.664C109.627 8.36267 111.281 7.712 113.286 7.712C115.633 7.712 116.806 8.736 116.806 10.784C116.806 11.9787 116.465 13.0773 115.782 14.08C115.099 15.0827 114.193 15.8933 113.062 16.512C111.931 17.1093 110.726 17.4507 109.446 17.536C109.403 18.0053 109.382 18.3253 109.382 18.496C109.382 20.2667 110.043 21.152 111.366 21.152C111.963 21.152 112.603 20.992 113.286 20.672C113.969 20.352 114.587 19.9467 115.142 19.456C114.566 22.6133 112.721 24.192 109.606 24.192ZM109.67 16C110.481 15.9787 111.238 15.712 111.942 15.2C112.667 14.688 113.243 14.0373 113.67 13.248C114.118 12.4373 114.342 11.5947 114.342 10.72C114.342 9.84533 114.075 9.408 113.542 9.408C112.795 9.408 112.049 10.0907 111.302 11.456C110.577 12.8 110.033 14.3147 109.67 16Z" fill="white"/>
</svg>
