<svg width="100%" height="100%" viewBox="0 0 140 41" fill="none"
  xmlns="http://www.w3.org/2000/svg">
  <path d="M67.8922 6.29955L60.0669 6.98389L62.5209 35.0457L70.3463 34.3613L67.8922 6.29955Z" fill="white"/>
  <path d="M98.5278 3.58985L111.493 2.44958L112 8.06646L106.679 8.53101L107.143 13.8945L111.873 13.4722L112.338 18.8356L107.608 19.258L108.664 31.083L101.02 31.7587L98.5278 3.58985Z" fill="white"/>
  <path d="M121.017 1.61923L113.36 2.28894L115.825 30.4769L123.482 29.8072L121.017 1.61923Z" fill="white"/>
  <path d="M139.493 0L122.769 1.43589L123.276 7.09499L127.795 6.7149L129.78 29.2246L137.424 28.5911L135.439 6.03919L140 5.61687L139.493 0Z" fill="white"/>
  <path d="M97.5175 15.1144L92.3848 15.5632L92.7821 20.107L97.9148 19.6582L97.5175 15.1144Z" fill="white"/>
  <path d="M0 12.2473L7.81294 11.5715C10.2624 11.3604 12.5852 11.3181 13.8521 11.5715C15.1613 11.8249 16.2594 12.4584 17.104 13.472C17.9909 14.4856 18.5399 16.2171 18.7511 18.6665C18.8778 20.3136 18.7088 21.4961 18.2443 22.1718C17.7375 22.8475 16.7239 23.4388 15.1191 23.9455C16.9773 24.1567 18.2443 24.7057 18.9622 25.5081C19.6802 26.3528 20.1447 27.662 20.2714 29.478L20.4826 32.0963C20.6515 33.9968 20.5248 35.4327 20.1447 36.3618C19.7646 37.3331 19.0889 38.0088 18.0753 38.4312C17.104 38.8535 15.0346 39.1913 11.8672 39.487L2.40723 40.3316L0 12.2473ZM8.23526 16.386L8.78428 22.6364C9.12214 22.5941 9.79785 22.5519 9.96678 22.5097C10.727 22.4252 11.1915 22.214 11.4027 21.8339C11.5716 21.4539 11.6138 20.4403 11.4449 18.7932C11.3604 17.9064 11.2337 17.3151 11.0226 16.9772C10.8114 16.6394 10.558 16.4282 10.3046 16.386C10.009 16.2593 9.03767 16.3015 8.23526 16.386ZM9.16437 26.9863L9.84008 34.8414C10.9381 34.7147 12.0362 34.4613 12.3318 34.1235C12.6274 33.8279 12.7119 33.0677 12.5852 31.9696L12.374 29.3513C12.2895 28.1688 12.0784 27.4508 11.7828 27.1974C11.4871 26.944 10.3469 26.9018 9.16437 26.9863Z" fill="white"/>
  <path d="M90.4617 15.7526L82.5643 16.4284L82.2686 13.261C82.1419 11.8251 81.973 10.9804 81.8041 10.6426C81.5929 10.3047 81.2128 10.178 80.6216 10.2202C79.9881 10.2625 79.5658 10.5159 79.4391 10.9804C79.3124 11.445 79.3124 12.3741 79.4391 13.7677L80.4526 25.1704C80.5793 26.5218 80.7483 27.4087 80.9594 27.831C81.1706 28.2111 81.5929 28.4223 82.1842 28.3378C82.7754 28.2956 83.1555 28.0422 83.2822 27.6199C83.4089 27.1975 83.4511 26.184 83.2822 24.6636L82.9443 21.0317L90.8417 20.3559L91.0107 22.3831C91.2641 25.2971 91.2218 27.3665 90.884 28.6334C90.5461 29.9004 89.6593 31.0407 88.2234 32.0965C86.7875 33.1523 84.9293 33.7858 82.7332 33.9547C80.4104 34.1658 78.4677 33.9547 76.9052 33.279C75.3426 32.6455 74.2445 31.6319 73.6533 30.3227C73.062 29.0135 72.6397 26.9442 72.3863 24.1991L71.6684 16.006C71.4994 13.9789 71.415 12.4585 71.4994 11.445C71.5417 10.4314 71.9218 9.41783 72.5975 8.40426C73.2732 7.39069 74.2445 6.58828 75.5115 5.91256C76.7785 5.27908 78.2988 4.85676 79.9881 4.68783C82.3109 4.47667 84.2958 4.73006 85.8584 5.44801C87.4632 6.16596 88.519 7.09506 89.1102 8.27756C89.7015 9.46006 90.0816 11.4027 90.335 14.0211L90.4617 15.7526Z" fill="white"/>
  <path d="M34.9674 9.24881L37.3746 8.82649L30.1952 9.12212L33.1514 5.06783L29.5617 8.53087L28.717 3.46301L28.7593 8.61533L24.7472 5.91248L28.2102 9.24881L21.2842 10.1779H23.6492L22.1288 38.5579L30.2374 37.8399L30.2796 32.7721L33.0669 32.5187L33.9116 37.5443L41.8934 36.8264L34.9674 9.24881ZM38.0926 36.1929C37.5435 36.2774 36.6989 35.8973 36.2343 35.8128C35.9387 35.7706 35.6009 35.855 35.4319 35.6439C35.3897 35.475 35.3897 35.306 35.3475 35.1793C35.1785 35.0526 35.0096 34.9259 34.8407 34.757C34.6295 34.4192 34.7562 34.0813 34.5451 33.7434C34.165 33.0677 33.5737 32.3498 33.1514 31.6741C32.8135 31.125 32.7713 30.576 32.3912 30.1115C32.1801 29.8581 31.8422 29.6892 31.631 29.4358C31.2087 28.8867 30.6597 27.4931 29.8151 27.4509C29.2238 28.5911 28.6326 29.8159 28.2947 31.1673C28.2947 31.5051 28.2947 31.8008 28.2947 32.1386C28.2102 32.392 27.9991 32.6876 27.9146 33.0255C27.8302 33.3211 27.7457 34.2925 27.8302 34.5881C27.8724 34.7148 27.7457 34.8415 27.7879 35.1371C27.8302 35.3905 27.9146 35.9817 27.6612 36.1084C27.4923 36.1507 27.2811 36.1929 27.07 36.3196C26.9855 36.3618 26.352 37.0798 26.2253 37.2487C25.5919 37.2909 25.0851 37.122 25.0851 36.9953C25.0851 36.8686 24.9161 36.5308 25.2118 36.3618C25.3385 36.2774 25.6341 35.8973 25.5919 35.7283C25.5496 35.6439 25.803 35.3483 25.8452 35.1371C25.9297 34.757 25.8875 34.5881 25.9719 34.208C26.0142 33.5323 26.0564 32.8566 26.0986 32.1386C26.2676 31.4207 26.5632 30.7872 26.6899 30.0692C26.6477 29.6892 26.7744 26.4795 26.9433 25.6771C26.9855 25.4659 27.1122 25.1281 27.1122 24.9169C27.1544 24.7058 27.3656 24.3679 27.4501 24.199C27.4923 23.9878 27.3234 23.9456 27.4078 23.7344C27.5345 23.4388 27.7879 23.1432 27.9146 22.8476C28.0835 22.383 28.0413 22.0029 28.2525 21.5384C28.4214 21.1583 28.7593 20.6937 28.886 20.3136C28.9704 19.9758 29.3927 19.0467 29.4772 18.8355C29.6039 18.3709 29.3505 17.8219 29.435 17.2729C29.6039 16.3016 29.5194 15.0768 29.266 14.2322C29.0549 13.641 29.266 12.6274 29.3927 12.2473C29.3927 12.2473 29.3927 12.2473 29.3927 12.2051C29.3927 12.1628 29.3927 12.1628 29.3927 12.1628C29.3927 12.1206 29.3505 12.0784 29.3505 11.9517V11.9094C29.3083 11.8672 29.266 11.825 29.2238 11.7827C29.2238 11.7405 29.1816 11.6983 29.1816 11.6983V11.656C29.1816 11.656 29.1816 11.6138 29.1394 11.6138L29.0971 11.5716C29.0971 11.5293 29.0971 11.5293 29.0971 11.4871C29.0971 11.4449 29.0971 11.4449 29.0971 11.4026C29.0971 11.3604 29.0971 11.3182 29.0971 11.3182C29.0971 11.276 29.0971 11.2337 29.0971 11.2337C29.0971 11.1915 29.1394 11.1915 29.1816 11.1915H29.2238C29.266 11.1915 29.266 11.1915 29.3083 11.1493C29.3083 11.1493 29.3083 11.1493 29.3083 11.107C29.3083 11.0648 29.3083 11.0648 29.3505 11.0226C29.3505 11.0226 29.3505 10.9803 29.3927 10.9803C29.3927 10.9381 29.435 10.9381 29.435 10.9381C29.435 10.9381 29.4772 10.9381 29.5194 10.9381C29.5617 10.9381 29.5617 10.9381 29.6039 10.9381H29.6461C29.6884 10.9381 29.6884 10.8959 29.7306 10.8959C29.7306 10.8959 29.7306 10.8959 29.7306 10.8536C29.7306 10.8536 29.7306 10.8114 29.7728 10.7692C29.7728 10.7692 29.7728 10.7269 29.8151 10.7269C29.8573 10.7269 29.8573 10.6847 29.8995 10.7269C29.9418 10.7269 29.984 10.7692 29.984 10.7692C30.0262 10.7692 30.0685 10.8114 30.0685 10.8114C30.1107 10.8114 30.1107 10.8114 30.1529 10.8114C30.1952 10.8114 30.1952 10.7692 30.2374 10.7692C30.2796 10.7692 30.3218 10.7692 30.3218 10.8114C30.3218 10.8536 30.3641 10.8536 30.3641 10.8959C30.3641 10.9381 30.3641 10.9803 30.3641 11.0226C30.3641 11.0648 30.3641 11.107 30.3641 11.107C30.3641 11.1493 30.3641 11.1493 30.3641 11.1915C30.3641 11.2337 30.3641 11.3182 30.3218 11.3604V11.4026V11.4449C30.3641 11.4871 30.3641 11.4871 30.4063 11.5293C30.4485 11.5293 30.4485 11.5716 30.4485 11.6138C30.4485 11.656 30.4485 11.6983 30.4485 11.7405C30.4485 11.7405 30.4485 11.7405 30.4485 11.7827C30.4485 11.825 30.4063 11.825 30.4063 11.8672C30.4063 11.8672 30.3641 11.8672 30.3641 11.9094C30.2796 11.9517 30.2374 11.9939 30.1529 12.0361C30.1529 12.0361 30.1529 12.0784 30.1529 12.1206C30.1529 12.2051 30.1529 12.2895 30.1529 12.374C30.1529 12.4162 30.1529 12.4162 30.1529 12.4585C30.1529 12.5007 30.1529 12.5429 30.1529 12.5851C30.1952 13.0497 30.3219 13.5565 30.4485 13.9366C30.533 14.2744 30.3219 14.9501 30.4908 15.3725C30.6175 15.7948 30.7442 16.2593 30.8709 16.6817C30.8709 16.9773 30.9131 17.2729 30.9131 17.6108C30.9553 17.6952 31.1243 17.9486 31.1665 18.0331C31.3354 18.4132 31.2087 18.5399 31.7155 18.5399C31.7155 18.4976 31.4199 17.6952 31.5466 17.3151C31.8422 16.5972 31.4199 16.3438 32.1378 16.0482C32.5602 15.6681 33.5315 15.9637 33.7427 16.3438C33.9538 16.555 33.9538 16.8506 33.9116 17.0618C33.9538 17.3151 33.8271 17.9909 33.7427 18.0753C33.616 18.2865 33.4893 18.4976 33.3626 18.7088C33.2359 18.8777 32.9825 19.0044 32.898 19.2156C32.5179 20.1447 33.5315 20.6937 33.3203 21.4961C33.2781 21.6228 33.0669 22.0874 32.9825 22.2141C32.8135 22.3408 32.6868 22.4675 32.5179 22.6364C32.3068 23.0587 32.3912 23.481 32.2223 23.9456C32.1378 24.1567 31.8844 24.5791 32.0534 24.9169C32.0956 25.0859 32.3068 25.2125 32.3912 25.3392C32.4335 25.5504 32.4757 25.7616 32.4757 25.9727C32.6869 26.4373 33.1092 26.9018 33.3626 27.3664C33.7427 28.2533 33.8271 29.2246 34.2917 29.9848C34.5451 30.4493 35.0941 30.7872 35.3897 31.2095C35.7276 31.6741 35.7276 32.2231 36.0654 32.6876C36.5722 33.3633 36.7834 34.4192 37.5858 34.8415C39.2751 35.6861 38.2193 36.1507 38.0926 36.1929Z" fill="white"/>
  <path d="M58.2802 15.7106L51.0163 16.344L50.8474 14.2747C50.7629 13.3033 50.6362 12.7121 50.4251 12.4587C50.2139 12.2053 49.876 12.1208 49.4537 12.1208C48.9892 12.1631 48.6513 12.3742 48.4402 12.7543C48.229 13.1344 48.1445 13.6834 48.229 14.4014C48.3135 15.3305 48.5246 16.0484 48.8202 16.4707C49.1159 16.9353 49.9183 17.4421 51.1852 17.9911C54.8172 19.5959 57.1822 20.9896 58.1958 22.1721C59.2093 23.3123 59.8428 25.2973 60.054 28.0423C60.2229 30.0272 60.0962 31.5476 59.6739 32.5189C59.2516 33.5325 58.3647 34.3772 56.971 35.1373C55.5774 35.8975 53.9303 36.3621 52.0299 36.531C49.9183 36.6999 48.1023 36.4888 46.5819 35.8975C45.0194 35.3063 43.9635 34.4194 43.4145 33.3214C42.8655 32.2233 42.4854 30.6185 42.3165 28.5069L42.1476 26.6487L49.4115 26.0152L49.7071 29.436C49.7916 30.4918 49.9605 31.1675 50.1717 31.4209C50.3828 31.7165 50.7629 31.801 51.3119 31.7588C51.8187 31.7165 52.1988 31.5054 52.41 31.083C52.6211 30.6607 52.7056 30.1117 52.6634 29.3515C52.5367 27.7045 52.1988 26.6487 51.6498 26.1841C51.1008 25.7196 49.8338 24.9594 47.7644 23.9458C45.6951 22.9323 44.3436 22.1721 43.6679 21.6653C42.9922 21.1585 42.401 20.4828 41.8942 19.5537C41.3874 18.6246 41.0918 17.4421 40.9651 15.9217C40.7961 13.7679 40.9228 12.1631 41.4296 11.1073C41.9364 10.0515 42.8233 9.20682 44.0902 8.53111C45.3572 7.85539 46.9198 7.43307 48.778 7.26414C50.8052 7.09521 52.5789 7.22191 54.057 7.7287C55.5351 8.23548 56.5487 8.9112 57.0977 9.79807C57.6468 10.6849 58.0268 12.2475 58.1958 14.4858L58.2802 15.7106Z" fill="white"/>
</svg>
