<svg width="100%" height="100%" viewBox="0 0 150 22" fill="none"
  xmlns="http://www.w3.org/2000/svg">
  <path d="M100.347 6.45329V6.72022C100.347 9.40129 98.589 11.4136 95.643 12.1117L95.391 12.1704L100.224 21.0085C100.287 21.1112 100.287 21.1376 100.275 21.1874H99.12C99.036 21.1874 98.991 21.1698 98.904 20.9968L94.2 12.273H89.724V11.2962H93.99C97.629 11.2962 99.261 9.05222 99.261 6.82876V6.32422C99.261 3.39089 97.389 1.76289 93.99 1.76289H88.053V21.0437C88.053 21.1112 88.017 21.1757 87.888 21.1757H87.099C86.997 21.1757 86.964 21.1434 86.964 21.0437V0.950354C86.964 0.789021 87.063 0.789021 87.099 0.789021H93.999C98.031 0.789021 100.347 2.85115 100.347 6.45329ZM80.67 10.6333L80.223 10.469L80.655 10.2725C82.566 9.39249 83.454 8.07542 83.454 6.11596V5.64076C83.454 3.68422 82.59 1.39915 78.762 0.894621L78.105 1.81275C80.862 2.06795 82.368 3.40262 82.368 5.64076V6.11596C82.368 8.67089 80.649 10.0202 77.4 10.0202H72.246L71.55 10.9941H77.4C79.077 10.9941 82.974 11.437 82.974 15.5232V15.9397C82.974 18.7293 81.048 20.2018 77.4 20.2018H70.827V12.009L69.738 13.5314V21.0437C69.738 21.1434 69.771 21.1757 69.873 21.1757H77.4C78.963 21.1757 84.06 20.7973 84.06 15.9397V15.5232C84.06 13.2293 82.8 11.3989 80.67 10.6333ZM132.627 0.789021H131.838C131.802 0.789021 131.703 0.789021 131.703 0.950354V13.8042C131.703 17.8082 129.318 20.4981 125.766 20.4981C122.214 20.4981 119.766 17.8082 119.766 13.8042V0.950354C119.768 0.928718 119.765 0.906954 119.757 0.886575C119.75 0.866195 119.737 0.847687 119.722 0.832337C119.706 0.816986 119.687 0.80516 119.666 0.79768C119.645 0.7902 119.623 0.787245 119.601 0.789021H118.812C118.776 0.789021 118.677 0.789021 118.677 0.950354V13.8042C118.677 18.392 121.527 21.472 125.763 21.472C129.999 21.472 132.789 18.392 132.789 13.8042V0.950354C132.791 0.928982 132.788 0.907489 132.78 0.887332C132.773 0.867175 132.761 0.848824 132.746 0.833524C132.73 0.818224 132.712 0.806332 132.691 0.798654C132.671 0.790975 132.649 0.78769 132.627 0.789021ZM149.517 20.941L141.783 9.14902L149.583 1.05302C149.727 0.912221 149.742 0.871154 149.742 0.803687L148.605 0.789021C148.509 0.789021 148.419 0.882888 148.281 1.03249L148.14 1.17915L136.707 12.8802V0.950354C136.709 0.928718 136.706 0.906954 136.698 0.886575C136.691 0.866195 136.678 0.847687 136.663 0.832337C136.647 0.816986 136.628 0.80516 136.607 0.79768C136.586 0.7902 136.564 0.787245 136.542 0.789021H135.753C135.717 0.789021 135.618 0.789021 135.618 0.950354V21.0437C135.618 21.1464 135.651 21.1757 135.753 21.1757H136.542C136.707 21.1757 136.707 21.0818 136.707 21.0437V14.4085L141 9.89409L148.2 20.9704C148.302 21.1346 148.341 21.1757 148.428 21.1757H149.61C149.61 21.1376 149.568 21.0496 149.523 20.9762L149.517 20.941ZM115.689 0.789021H103.389C103.353 0.789021 103.254 0.789021 103.254 0.950354V21.0437C103.254 21.1434 103.287 21.1757 103.389 21.1757H115.689C115.854 21.1757 115.854 21.0818 115.854 21.0437V20.3632C115.856 20.3415 115.853 20.3198 115.845 20.2994C115.838 20.279 115.825 20.2605 115.81 20.2451C115.794 20.2298 115.775 20.218 115.754 20.2105C115.733 20.203 115.711 20.2 115.689 20.2018H104.349V11.352H113.565C113.727 11.352 113.727 11.2552 113.727 11.22V10.5394C113.729 10.5181 113.726 10.4966 113.718 10.4764C113.711 10.4562 113.699 10.4379 113.684 10.4226C113.668 10.4073 113.65 10.3954 113.629 10.3877C113.609 10.38 113.587 10.3768 113.565 10.3781H104.349V1.75995H115.689C115.854 1.75995 115.854 1.66609 115.854 1.63089V0.950354C115.856 0.928718 115.853 0.906954 115.845 0.886575C115.838 0.866195 115.825 0.847687 115.81 0.832337C115.794 0.816986 115.775 0.80516 115.754 0.79768C115.733 0.7902 115.711 0.787245 115.689 0.789021ZM31.8 0.818354H17.622C17.378 0.819128 17.1442 0.914253 16.9716 1.08297C16.7991 1.25168 16.7018 1.48029 16.701 1.71889V3.86902C16.7026 4.10738 16.8001 4.33554 16.9725 4.5041C17.1449 4.67265 17.3782 4.76802 17.622 4.76955H22.557V20.2546C22.5578 20.4932 22.6551 20.7218 22.8276 20.8905C23.0002 21.0593 23.234 21.1544 23.478 21.1552H25.944C26.1878 21.1536 26.4211 21.0582 26.5935 20.8897C26.7659 20.7211 26.8634 20.493 26.865 20.2546V4.76955H31.8C32.0438 4.76802 32.2771 4.67265 32.4495 4.5041C32.6219 4.33554 32.7194 4.10738 32.721 3.86902V1.71889C32.7202 1.48029 32.6229 1.25168 32.4504 1.08297C32.2778 0.914253 32.044 0.819128 31.8 0.818354ZM59.844 1.71889C59.8432 1.48029 59.7459 1.25168 59.5734 1.08297C59.4008 0.914253 59.167 0.819128 58.923 0.818354H56.457C56.213 0.819128 55.9792 0.914253 55.8067 1.08297C55.6341 1.25168 55.5368 1.48029 55.536 1.71889V20.2546C55.5376 20.493 55.6351 20.7211 55.8075 20.8897C55.9799 21.0582 56.2132 21.1536 56.457 21.1552H64.299L67.119 17.204H59.841L59.844 1.71889ZM4.99502 6.19222C4.99502 4.59356 6.19502 4.18875 8.11502 4.18875C10.035 4.18875 10.671 5.26235 10.968 6.22155C11.115 6.77302 11.4 7.03996 11.919 7.03996H14.355C14.599 7.03918 14.8328 6.94406 15.0054 6.77534C15.1779 6.60663 15.2752 6.37802 15.276 6.13942C15.276 3.22662 12.81 0.527954 8.17502 0.527954C3.07502 0.527954 0.67502 2.79249 0.67502 6.19222C0.67502 13.9216 11.283 11.393 11.283 15.4322C11.283 17.1746 10.332 17.7789 8.01302 17.7789C4.83602 17.7789 4.56602 15.6288 4.44902 15.0773C4.41604 14.8736 4.31473 14.6864 4.16104 14.5451C4.00735 14.4039 3.80999 14.3166 3.60002 14.297H1.20002C1.07828 14.2966 0.957663 14.3197 0.845043 14.3649C0.732423 14.4101 0.63001 14.4765 0.543651 14.5604C0.457293 14.6443 0.38868 14.744 0.34173 14.8538C0.29478 14.9637 0.270413 15.0815 0.27002 15.2005C0.27002 17.9314 2.64902 21.4456 8.02502 21.4456C11.829 21.4456 15.6 19.8762 15.6 15.4322C15.6 7.41249 4.99502 9.91169 4.99502 6.19222ZM51.795 0.818354H49.329C49.085 0.819128 48.8512 0.914253 48.6787 1.08297C48.5061 1.25168 48.4088 1.48029 48.408 1.71889V14.5581C48.4238 14.8807 48.3726 15.203 48.2574 15.5056C48.1421 15.8083 47.9653 16.0849 47.7376 16.3188C47.5099 16.5527 47.236 16.739 46.9325 16.8664C46.629 16.9939 46.3023 17.0598 45.972 17.0602C45.2923 17.0435 44.6311 16.8402 44.064 16.4736C43.9208 16.3812 43.7462 16.3476 43.5778 16.38C43.4094 16.4123 43.2608 16.5081 43.164 16.6466L41.436 19.0872C41.3786 19.1685 41.3383 19.2601 41.3174 19.3568C41.2964 19.4534 41.2952 19.5532 41.3139 19.6503C41.3326 19.7473 41.3708 19.8399 41.4262 19.9224C41.4817 20.005 41.5533 20.0761 41.637 20.1314C42.8601 21.0141 44.3471 21.4771 45.867 21.4485C49.956 21.4485 52.701 19.008 52.701 14.7957V1.71889C52.7003 1.4818 52.6042 1.25451 52.4336 1.08604C52.263 0.917574 52.0315 0.821432 51.789 0.818354H51.795ZM38.433 0.818354H35.967C35.723 0.819128 35.4892 0.914253 35.3166 1.08297C35.1441 1.25168 35.0468 1.48029 35.046 1.71889V20.2546C35.0476 20.493 35.1451 20.7211 35.3175 20.8897C35.4899 21.0582 35.7232 21.1536 35.967 21.1552H38.433C38.6768 21.1536 38.9101 21.0582 39.0825 20.8897C39.2549 20.7211 39.3524 20.493 39.354 20.2546V1.71889C39.3536 1.60024 39.3293 1.48283 39.2825 1.37337C39.2357 1.2639 39.1674 1.16452 39.0813 1.0809C38.9952 0.997275 38.8931 0.93105 38.7808 0.886003C38.6686 0.840955 38.5484 0.817968 38.427 0.818354H38.433Z" fill="white"/>
</svg>
